<?xml version="1.0" standalone="no"?>
<!DOCTYPE svg PUBLIC "-//W3C//DTD SVG 20010904//EN"
 "http://www.w3.org/TR/2001/REC-SVG-20010904/DTD/svg10.dtd">
<svg version="1.0" xmlns="http://www.w3.org/2000/svg"
 width="360.000000pt" height="397.000000pt" viewBox="0 0 360.000000 397.000000"
 preserveAspectRatio="xMidYMid meet">

<g transform="translate(0.000000,397.000000) scale(0.100000,-0.100000)"
fill="white" stroke="none">
<path d="M1660 3964 c-284 -36 -537 -155 -738 -348 -285 -271 -428 -651 -392
-1035 37 -389 251 -748 571 -952 37 -24 68 -47 68 -50 1 -3 -18 -12 -41 -18
-60 -19 -250 -118 -341 -179 -401 -271 -666 -671 -773 -1166 -20 -96 -10 -143
39 -180 48 -36 88 -41 142 -17 36 16 50 29 65 63 11 24 20 53 20 64 0 42 49
210 89 309 307 750 1148 1139 1916 884 361 -120 673 -378 864 -714 82 -144
133 -290 186 -531 7 -31 53 -72 93 -84 75 -20 153 28 168 105 11 62 -55 308
-133 489 -180 421 -565 793 -992 959 l-45 17 73 48 c686 452 774 1420 179
1988 -172 164 -371 271 -608 325 -83 19 -331 33 -410 23z m240 -274 c356 -38
652 -248 804 -571 60 -127 86 -230 93 -370 15 -295 -83 -553 -287 -759 -569
-575 -1545 -272 -1696 526 -22 118 -15 315 16 429 116 433 495 733 950 754 14
0 68 -4 120 -9z"/>
</g>
</svg>
